<svg width="5" height="8" viewBox="0 0 5 8" fill="none" xmlns="http://www.w3.org/2000/svg">
<path d="M3.64032 0.327541L1.21488 0.327702C1.06088 0.327713 0.940567 0.44803 0.940557 0.602026C0.940555 0.630901 0.950132 1.34313 1.55647 1.67996L1.5564 2.77719C1.16177 2.98896 0.228124 3.605 0.228048 4.75035C0.228038 4.90435 0.348339 5.02465 0.502336 5.02464L2.1578 5.02453L2.15764 7.46922C2.15762 7.62322 2.27793 7.74352 2.43192 7.74351C2.50411 7.73869 2.57148 7.70982 2.61961 7.66169C2.66774 7.61356 2.69662 7.54619 2.69662 7.46919L2.69678 5.02449L4.35225 5.02438C4.42924 5.02438 4.49662 4.9955 4.54475 4.94737C4.59287 4.89925 4.62175 4.83187 4.62176 4.75487C4.62183 3.60952 3.68346 2.98879 3.29367 2.78188L3.29374 1.68466C3.90013 1.34775 3.90498 0.640329 3.9098 0.606642C3.91462 0.447833 3.79432 0.327531 3.64032 0.327541ZM2.93284 1.24675C2.82697 1.28526 2.75477 1.38633 2.75477 1.50182L2.75467 2.94554C2.75466 3.05141 2.82203 3.15728 2.91828 3.19577C2.91828 3.19577 3.22145 3.32569 3.51499 3.59035C3.80852 3.85501 3.98656 4.14855 4.05391 4.47579L2.42733 4.48553L0.791115 4.48563C0.959606 3.62421 1.88361 3.2199 1.92692 3.20546C2.02799 3.16215 2.09537 3.06589 2.09537 2.9504L2.09547 1.50668C2.09548 1.39118 2.0233 1.29013 1.91743 1.25163C1.70569 1.17465 1.59983 1.02066 1.54209 0.876293L3.31305 0.876175C3.25529 1.01093 3.14459 1.16974 2.93284 1.24675ZM2.83645 3.43158C2.8557 3.44121 3.05781 3.51819 3.20218 3.67218C3.2936 3.76361 3.28878 3.91279 3.19734 4.00424L3.19253 4.00905C3.09627 4.09568 2.94228 4.09569 2.85566 3.99945C2.7931 3.93689 2.69686 3.88877 2.66317 3.87434C2.53806 3.82622 2.48032 3.69148 2.52845 3.56635C2.58139 3.44604 2.71614 3.37866 2.83645 3.43158Z" fill="#4B4B4B"/>
</svg>
